<svg xmlns="http://www.w3.org/2000/svg" viewBox="0 0 1600 900"><rect width="1600" height="900" fill="#05090d"/><text x="72" y="82" fill="#eef4f7" font-family="Arial" font-size="20">EVALOMICS</text><text x="72" y="220" fill="#fff" font-family="Arial" font-weight="700" font-size="72">DON'T GUESS. BENCHMARK IT.</text><text x="90" y="350" fill="#7e8d94" font-family="Arial" font-size="22">CURRENT</text><rect x="80" y="390" width="600" height="230" rx="24" fill="#0c151d" stroke="#18303b"/><text x="120" y="455" fill="#a5b0b5" font-family="Arial" font-size="20">YOUR WORKFLOW / OUTCOME</text><g fill="#76848b"><rect x="120" y="520" width="65" height="12"/><rect x="205" y="520" width="65" height="12"/><rect x="290" y="520" width="65" height="12"/><rect x="375" y="520" width="65" height="12"/><rect x="460" y="520" width="65" height="12"/></g><text x="850" y="350" fill="#4de0ee" font-family="Arial" font-size="22">PROPOSED</text><rect x="830" y="390" width="600" height="230" rx="24" fill="#07191f" stroke="#174d58"/><text x="870" y="455" fill="#7cecf5" font-family="Arial" font-size="20">LESS WASTE. SAME QUALITY.</text><g fill="#4de0ee"><rect x="870" y="520" width="65" height="12"/><rect x="955" y="520" width="65" height="12"/><rect x="1040" y="520" width="65" height="12"/><rect x="1125" y="520" width="65" height="12"/></g><path d="M830 680h600" stroke="#4de0ee" stroke-width="3"/><text x="830" y="725" fill="#4de0ee" font-family="Arial" font-size="18">QUALITY ≥ REQUIRED FLOOR</text></svg>